<svg xmlns="http://www.w3.org/2000/svg" version="1.1" xmlns:xlink="http://www.w3.org/1999/xlink" xmlns:svgjs="http://svgjs.dev/svgjs" width="1000" height="1000" viewBox="0 0 1000 1000"><rect width="1000" height="1000" fill="#ffffff"></rect><g transform="matrix(0.7,0,0,0.7,150.00092093750015,106.25)"><svg viewBox="0 0 320 360" data-background-color="#ffffff" preserveAspectRatio="xMidYMid meet" height="1125" width="1000" xmlns="http://www.w3.org/2000/svg" xmlns:xlink="http://www.w3.org/1999/xlink"><g id="tight-bounds" transform="matrix(1,0,0,1,-0.00042100000007394556,0)"><svg viewBox="0 0 320 360" height="360" width="320"><g><svg></svg></g><g><svg viewBox="0 0 320 360" height="360" width="320"><g><path transform="translate(-9.31575,10.66434) scale(0.39811,0.39811)" d="M827.2 486c-0.2-21.2-13.6-38-13.8-59.2-0.1-21.2 13.1-46.8 12.9-68-6.7-20.1-24.7-31.9-31.4-52-6.7-20.1-2.1-48.6-8.7-68.7-12.6-17.1-33.4-22.7-45.9-39.7-12.6-17.1-17-45.6-29.5-62.6-17.2-12.3-38.7-11.3-56-23.6-17.2-12.3-30.2-38.1-47.5-50.4-20.2-6.4-40.3 1.3-60.5-5.2-20.2-6.4-40.5-26.9-60.7-33.3-21.2 0.2-38 13.6-59.2 13.8-21.2 0.1-46.8-13.1-68-12.9-20.1 6.7-31.9 24.7-52 31.4-20.1 6.7-48.6 2.1-68.7 8.8-17.1 12.6-22.7 33.4-39.7 45.9-17.1 12.6-45.6 17-62.6 29.6-12.3 17.2-11.3 38.7-23.6 56-12.3 17.2-38.1 30.2-50.4 47.5-6.4 20.2 1.2 40.3-5.2 60.5-6.4 20.2-26.9 40.5-33.3 60.7 0.1 21.2 13.6 38 13.8 59.2 0.1 21.2-13.1 46.8-12.9 68 6.7 20.1 24.7 31.9 31.4 52 6.7 20.1 2.1 48.6 8.8 68.7 12.6 17.1 33.4 22.7 45.9 39.8 12.6 17.1 17 45.6 29.5 62.6 17.2 12.3 38.7 11.3 56 23.6 17.2 12.3 30.2 38.1 47.5 50.4 20.2 6.4 40.3-1.2 60.5 5.2 20.2 6.4 40.5 26.9 60.7 33.3 21.2-0.2 38-13.6 59.2-13.8 21.2-0.1 46.8 13.1 68 12.9 20.1-6.7 31.9-24.7 52-31.4 20.1-6.7 48.6-2.1 68.7-8.8 17.1-12.6 22.7-33.4 39.8-45.9 17.1-12.6 45.6-17 62.6-29.5 12.3-17.2 11.3-38.7 23.6-56 12.3-17.2 38.1-30.2 50.4-47.5 6.4-20.2-1.2-40.3 5.2-60.5 6.2-20.4 26.7-40.7 33.1-60.9zM792 544.4c-9.1 17.9-31.4 33.8-40.6 51.7-9.1 17.9-5.1 37.9-14.2 55.8-14.2 14.2-40.3 22.4-54.6 36.6-14.2 14.2-16.5 34.5-30.8 48.7-17.9 9.1-45.3 8.8-63.2 18-17.9 9.1-26.4 27.7-44.3 36.8-19.9 3.1-45.8-5.6-65.7-2.5-19.9 3.1-33.7 18.2-53.5 21.3-19.9-3.1-41.8-19.5-61.7-22.6-19.9-3.2-37.6 6.9-57.5 3.7-17.9-9.1-33.8-31.5-51.7-40.6-17.9-9.1-37.9-5.1-55.9-14.2-14.2-14.2-22.4-40.3-36.6-54.6-14.2-14.2-34.5-16.6-48.7-30.8-9.1-17.9-8.8-45.3-18-63.2-9.1-17.9-27.7-26.4-36.8-44.3-3.1-19.9 5.6-45.8 2.5-65.7-3.2-19.9-18.2-33.7-21.3-53.5 3.2-19.9 19.5-41.8 22.6-61.7 3.1-19.9-6.9-37.6-3.7-57.5 9.1-17.9 31.5-33.8 40.6-51.7 9.1-17.9 5.1-37.9 14.2-55.9 14.2-14.2 40.3-22.4 54.6-36.6 14.2-14.2 16.6-34.5 30.8-48.7 17.9-9.1 45.3-8.8 63.2-18 17.9-9.1 26.4-27.7 44.3-36.8 19.9-3.1 45.8 5.6 65.7 2.5 19.9-3.1 33.7-18.2 53.5-21.3 19.9 3.1 41.8 19.5 61.7 22.6 19.9 3.2 37.6-6.9 57.5-3.7 17.9 9.1 33.8 31.5 51.7 40.6 17.9 9.1 37.9 5.1 55.9 14.2 14.2 14.2 22.4 40.3 36.6 54.6 14.2 14.2 34.5 16.6 48.7 30.8 9.1 17.9 8.8 45.3 18 63.2 9.1 17.9 27.7 26.4 36.8 44.3 3.2 19.9-5.6 45.8-2.5 65.7 3.1 19.9 18.2 33.7 21.3 53.5-3.1 19.9-19.5 41.8-22.6 61.7-3.1 19.9 6.9 37.7 3.7 57.6z" fill="#27292a" fill-rule="nonzero" stroke="none" stroke-width="1" stroke-linecap="butt" stroke-linejoin="miter" stroke-miterlimit="10" stroke-dasharray="" stroke-dashoffset="0" font-family="none" font-weight="none" font-size="none" text-anchor="none" style="mix-blend-mode: normal" data-fill-palette-color="tertiary"></path></g><g transform="matrix(1,0,0,1,60.7702115123858,80.99999999999999)"><svg viewBox="0 0 198.4595769752284 198.00000000000003" height="198.00000000000003" width="198.4595769752284"><g><svg viewBox="0 0 225.11999999999998 224.59868492798245" height="198.00000000000003" width="198.4595769752284"><g><rect width="225.11999999999998" height="4.662729961380823" x="0" y="125.64599487928741" fill="#27292a" opacity="1" stroke-width="0" stroke="transparent" fill-opacity="1" class="rect-i$-0" data-fill-palette-color="primary" rx="1%" id="i$-0" data-palette-color="#27292a"></rect></g><g transform="matrix(1,0,0,1,0.5599999999999881,142.5148242160107)"><svg viewBox="0 0 224 82.08386071197174" height="82.08386071197174" width="224"><g id="textblocktransform"><svg viewBox="0 0 224 82.08386071197174" height="82.08386071197174" width="224" id="textblock"><g><svg viewBox="0 0 224 51.704109589041096" height="51.704109589041096" width="224"><g transform="matrix(1,0,0,1,0,0)"><svg width="224" viewBox="1.9 -33.25 145.98999999999998 33.7" height="51.704109589041096" data-palette-color="#27292a"><g class="undefined-text-0" data-fill-palette-color="primary" id="text-0"><path d="M9.6 0L1.9 0 1.9-32.75 9.7-32.75Q13.65-32.75 16.07-32.1 18.5-31.45 20.2-29.65 21.9-27.85 22.6-24.68 23.3-21.5 23.3-15.68 23.3-9.85 21.88-6.3 20.45-2.75 17.6-1.38 14.75 0 9.6 0L9.6 0ZM16-6.65Q17.15-7.95 17.57-10.23 18-12.5 18-16.43 18-20.35 17.65-22.6 17.3-24.85 16.18-26.18 15.05-27.5 13.4-27.88 11.75-28.25 8.7-28.25L8.7-28.25 7.1-28.25 7.1-4.5 8.6-4.5Q11.5-4.5 13.18-4.93 14.85-5.35 16-6.65ZM30.4 0L25 0 32.95-32.75 42.3-32.75 50 0 44.5 0 42.95-6.25 31.85-6.25 30.4 0ZM32.9-10.9L41.85-10.9 38.15-28.1 37.05-28.1 32.9-10.9Z" fill="#27292a" data-fill-palette-color="primary"></path><path d="M55.75 0L51.05 0 51.05-32.75 56-32.75 62.3-15.65 62.7-15.65 69-32.75 73.95-32.75 73.95 0 69.25 0 69.4-22.15 69.2-22.15 64.95-11.1 60.05-11.1 55.8-22.15 55.6-22.15 55.75 0ZM97.3 0L78 0 78-32.75 97.15-32.75 97.15-28.05 83.2-28.05 83.2-18.95 95.8-18.95 95.8-14.45 83.2-14.45 83.2-4.7 97.3-4.7 97.3 0ZM102.1-24L102.1-24Q102.1-33.25 113.2-33.25L113.2-33.25Q117.09-33.25 122.09-31.5L122.09-31.5 120.95-26.95Q115.84-28.55 112.92-28.58 110-28.6 108.7-27.6 107.4-26.6 107.4-24.1L107.4-24.1Q107.4-22.4 108.85-21.23 110.3-20.05 113.75-19.15L113.75-19.15Q119-17.75 120.95-15.55 122.9-13.35 122.9-9L122.9-9Q122.9 0.45 111.6 0.45L111.6 0.45Q107.85 0.45 102.15-1.15L102.15-1.15 103.2-5.9Q103.2-5.85 104.75-5.45L104.75-5.45Q109.6-4.2 112.27-4.2 114.95-4.2 116.27-5.55 117.59-6.9 117.59-8.95 117.59-11 116.47-12.1 115.34-13.2 112.35-14.05L112.35-14.05Q106.95-15.55 104.52-17.75 102.1-19.95 102.1-24ZM127.09-24L127.09-24Q127.09-33.25 138.19-33.25L138.19-33.25Q142.09-33.25 147.09-31.5L147.09-31.5 145.94-26.95Q140.84-28.55 137.92-28.58 134.99-28.6 133.69-27.6 132.39-26.6 132.39-24.1L132.39-24.1Q132.39-22.4 133.84-21.23 135.29-20.05 138.74-19.15L138.74-19.15Q143.99-17.75 145.94-15.55 147.89-13.35 147.89-9L147.89-9Q147.89 0.45 136.59 0.45L136.59 0.45Q132.84 0.45 127.14-1.15L127.14-1.15 128.19-5.9Q128.19-5.85 129.74-5.45L129.74-5.45Q134.59-4.2 137.27-4.2 139.94-4.2 141.27-5.55 142.59-6.9 142.59-8.95 142.59-11 141.47-12.1 140.34-13.2 137.34-14.05L137.34-14.05Q131.94-15.55 129.52-17.75 127.09-19.95 127.09-24Z" fill="#fdc500" data-fill-palette-color="accent"></path></g></svg></g></svg></g><g transform="matrix(1,0,0,1,0,63.910208964383564)"><svg viewBox="0 0 224 18.173651747588167" height="18.173651747588167" width="224"><g transform="matrix(1,0,0,1,0,0)"><svg width="224" viewBox="2.65 -37.75 632.24 51.3" height="18.173651747588167" data-palette-color="#27292a"><path d="M14.95 0L2.65 0 2.65-2.2Q4.3-2.3 5.03-2.9 5.75-3.5 5.95-4.7 6.15-5.9 6.15-7.75L6.15-7.75 6.15-28.55Q6.15-29.65 6.2-30.68 6.25-31.7 6.3-32.45L6.3-32.45Q5.45-32.4 4.45-32.35 3.45-32.3 2.65-32.25L2.65-32.25 2.65-35 14.95-35 14.95-32.8Q13.35-32.75 12.6-32.13 11.85-31.5 11.65-30.33 11.45-29.15 11.45-27.25L11.45-27.25 11.45-19.1 28-19.1 28-28.55Q28-29.65 28.05-30.68 28.1-31.7 28.15-32.45L28.15-32.45Q27.3-32.4 26.3-32.35 25.3-32.3 24.5-32.25L24.5-32.25 24.5-35 36.8-35 36.8-32.8Q35.2-32.75 34.45-32.13 33.7-31.5 33.5-30.33 33.3-29.15 33.3-27.25L33.3-27.25 33.3-6.7Q33.3-5.35 33.27-4.28 33.25-3.2 33.15-2.55L33.15-2.55Q34-2.65 35-2.68 36-2.7 36.8-2.75L36.8-2.75 36.8 0 24.5 0 24.5-2.2Q26.15-2.3 26.88-2.9 27.6-3.5 27.8-4.7 28-5.9 28-7.75L28-7.75 28-16.5 11.45-16.35 11.45-6.7Q11.45-5.35 11.43-4.28 11.4-3.2 11.3-2.55L11.3-2.55Q12.15-2.65 13.18-2.68 14.2-2.7 14.95-2.75L14.95-2.75 14.95 0ZM52.45 0.8L52.45 0.8Q48.95 0.8 46.17-0.83 43.4-2.45 41.8-5.43 40.2-8.4 40.2-12.45L40.2-12.45Q40.2-15.95 41.77-19 43.35-22.05 46.2-23.93 49.05-25.8 52.8-25.8L52.8-25.8Q54.9-25.8 56.77-25.15 58.65-24.5 60.12-23.13 61.6-21.75 62.45-19.58 63.3-17.4 63.3-14.3L63.3-14.3 46.1-14Q46.1-10.6 46.87-7.95 47.65-5.3 49.4-3.85 51.15-2.4 53.95-2.4L53.95-2.4Q55.3-2.4 56.82-2.88 58.35-3.35 59.72-4.25 61.1-5.15 62.05-6.4L62.05-6.4 63.6-5.05Q62.1-2.8 60.15-1.53 58.2-0.25 56.17 0.28 54.15 0.8 52.45 0.8ZM46.3-16.6L46.3-16.6 57.85-16.6Q57.85-18.5 57.32-20.03 56.8-21.55 55.7-22.45 54.6-23.35 52.9-23.35L52.9-23.35Q50.25-23.35 48.55-21.68 46.85-20 46.3-16.6ZM90.15 0L82.2 0Q82.1-0.8 82.05-1.4 82-2 81.9-2.65L81.9-2.65Q80.2-0.95 78.25-0.08 76.3 0.8 74.2 0.8L74.2 0.8Q70.6 0.8 68.77-0.98 66.95-2.75 66.95-5.4L66.95-5.4Q66.95-7.7 68.3-9.4 69.65-11.1 71.85-12.18 74.05-13.25 76.65-13.78 79.25-14.3 81.75-14.3L81.75-14.3 81.75-17.25Q81.75-18.85 81.45-20.23 81.15-21.6 80.22-22.48 79.3-23.35 77.35-23.35L77.35-23.35Q76.05-23.4 74.75-22.88 73.45-22.35 72.75-21.15L72.75-21.15Q73.15-20.75 73.27-20.23 73.4-19.7 73.4-19.25L73.4-19.25Q73.4-18.55 72.8-17.68 72.2-16.8 70.75-16.85L70.75-16.85Q69.55-16.85 68.92-17.68 68.3-18.5 68.3-19.6L68.3-19.6Q68.3-21.4 69.62-22.8 70.95-24.2 73.25-25 75.55-25.8 78.4-25.8L78.4-25.8Q82.7-25.8 84.82-23.55 86.95-21.3 86.95-16.45L86.95-16.45Q86.95-14.65 86.95-13 86.95-11.35 86.92-9.7 86.9-8.05 86.9-6.2L86.9-6.2Q86.9-5.45 86.85-4.5 86.8-3.55 86.7-2.5L86.7-2.5Q87.55-2.55 88.45-2.6 89.35-2.65 90.15-2.65L90.15-2.65 90.15 0ZM81.75-12L81.75-12Q80.15-11.9 78.47-11.55 76.8-11.2 75.45-10.5 74.1-9.8 73.27-8.7 72.45-7.6 72.45-6.05L72.45-6.05Q72.55-4.35 73.57-3.55 74.6-2.75 76-2.75L76-2.75Q77.75-2.75 79.1-3.43 80.45-4.1 81.75-5.3L81.75-5.3Q81.7-5.85 81.7-6.43 81.7-7 81.7-7.65L81.7-7.65Q81.7-8.1 81.72-9.33 81.75-10.55 81.75-12ZM92.79 0L92.79-2.1Q94.29-2.1 94.89-2.8 95.49-3.5 95.62-4.75 95.74-6 95.74-7.65L95.74-7.65 95.74-30.25Q95.74-31.1 95.77-31.98 95.79-32.85 95.89-33.85L95.89-33.85Q95.04-33.8 94.09-33.77 93.14-33.75 92.39-33.7L92.39-33.7 92.39-36.35Q94.64-36.35 95.97-36.58 97.29-36.8 98.02-37.1 98.74-37.4 99.09-37.75L99.09-37.75 100.99-37.75 100.99-6.2Q100.99-5.3 100.94-4.38 100.89-3.45 100.79-2.5L100.79-2.5Q101.59-2.55 102.42-2.58 103.24-2.6 103.94-2.65L103.94-2.65 103.94 0 92.79 0ZM117.14 0.8L117.14 0.8Q115.89 0.8 114.64 0.48 113.39 0.15 112.32-0.83 111.24-1.8 110.64-3.65 110.04-5.5 110.04-8.55L110.04-8.55 110.14-22.2 106.44-22.2 106.44-25Q107.79-25.05 109.19-26 110.59-26.95 111.64-28.55 112.69-30.15 113.09-32L113.09-32 115.44-32 115.44-25 123.14-25 123.14-22.4 115.44-22.3 115.34-8.95Q115.34-7.05 115.67-5.63 115.99-4.2 116.77-3.43 117.54-2.65 118.89-2.65L118.89-2.65Q120.04-2.65 121.27-3.35 122.49-4.05 123.59-5.65L123.59-5.65 125.29-4.15Q124.09-2.4 122.89-1.4 121.69-0.4 120.59 0.08 119.49 0.55 118.59 0.68 117.69 0.8 117.14 0.8ZM143.04 0L143.04-2.1Q144.54-2.1 145.16-2.8 145.79-3.5 145.91-4.75 146.04-6 146.04-7.65L146.04-7.65 145.99-14.65Q145.99-18.6 144.76-20.58 143.54-22.55 140.84-22.5L140.84-22.5Q139.19-22.45 137.61-21.7 136.04-20.95 134.99-19.8L134.99-19.8 134.99-6.2Q134.99-5.3 134.94-4.38 134.89-3.45 134.79-2.5L134.79-2.5Q135.59-2.55 136.41-2.58 137.24-2.6 137.94-2.65L137.94-2.65 137.94 0 126.79 0 126.79-2.1Q128.29-2.1 128.89-2.8 129.49-3.5 129.64-4.75 129.79-6 129.79-7.65L129.79-7.65 129.79-30.25Q129.79-31.1 129.81-31.98 129.84-32.85 129.94-33.85L129.94-33.85Q129.09-33.8 128.14-33.77 127.19-33.75 126.39-33.7L126.39-33.7 126.39-36.35Q128.64-36.35 129.99-36.58 131.34-36.8 132.06-37.1 132.79-37.4 133.14-37.75L133.14-37.75 134.99-37.75 134.99-22.65Q136.09-23.55 137.44-24.25 138.79-24.95 140.21-25.38 141.64-25.8 142.89-25.8L142.89-25.8Q147.34-25.8 149.26-23.1 151.19-20.4 151.24-14.65L151.24-14.65 151.24-6.2Q151.24-5.3 151.21-4.38 151.19-3.45 151.04-2.5L151.04-2.5Q151.84-2.55 152.69-2.58 153.54-2.6 154.24-2.65L154.24-2.65 154.24 0 143.04 0ZM161.54 13.55L161.54 13.55Q159.89 13.55 158.71 12.68 157.54 11.8 157.54 10.15L157.54 10.15Q157.54 9.1 158.21 8.25 158.89 7.4 159.99 7.4L159.99 7.4Q161.19 7.35 161.71 8.15 162.24 8.95 162.24 9.8L162.24 9.8Q162.24 9.95 162.24 10.1 162.24 10.25 162.19 10.45L162.19 10.45Q162.34 10.55 162.64 10.5L162.64 10.5Q163.19 10.45 163.84 9.9 164.49 9.35 165.04 8.35L165.04 8.35Q165.64 7.25 166.39 5.3 167.14 3.35 168.04 0.8L168.04 0.8 160.19-15.6Q158.84-18.4 158.31-19.98 157.79-21.55 157.64-22.45L157.64-22.45 155.24-22.35 155.24-25 166.29-25 166.29-22.95 166.19-22.95Q164.14-22.75 163.96-21.4 163.79-20.05 164.89-17.7L164.89-17.7 170.39-5.6Q171.34-8.15 172.31-11.15 173.29-14.15 174.34-17.3L174.34-17.3Q174.69-18.25 175.06-19.33 175.44-20.4 175.86-21.3 176.29-22.2 176.69-22.55L176.69-22.55 173.44-22.35 173.44-25 181.64-25 181.64-22.95Q179.89-22.35 178.91-20.75 177.94-19.15 177.04-16.7L177.04-16.7 170.79 0.9Q169.34 5.05 168.09 7.88 166.84 10.7 165.31 12.13 163.79 13.55 161.54 13.55ZM219.83 0L211.88 0Q211.78-0.8 211.73-1.4 211.68-2 211.58-2.65L211.58-2.65Q209.88-0.95 207.93-0.08 205.98 0.8 203.88 0.8L203.88 0.8Q200.28 0.8 198.46-0.98 196.63-2.75 196.63-5.4L196.63-5.4Q196.63-7.7 197.98-9.4 199.33-11.1 201.53-12.18 203.73-13.25 206.33-13.78 208.93-14.3 211.43-14.3L211.43-14.3 211.43-17.25Q211.43-18.85 211.13-20.23 210.83-21.6 209.91-22.48 208.98-23.35 207.03-23.35L207.03-23.35Q205.73-23.4 204.43-22.88 203.13-22.35 202.43-21.15L202.43-21.15Q202.83-20.75 202.96-20.23 203.08-19.7 203.08-19.25L203.08-19.25Q203.08-18.55 202.48-17.68 201.88-16.8 200.43-16.85L200.43-16.85Q199.23-16.85 198.61-17.68 197.98-18.5 197.98-19.6L197.98-19.6Q197.98-21.4 199.31-22.8 200.63-24.2 202.93-25 205.23-25.8 208.08-25.8L208.08-25.8Q212.38-25.8 214.51-23.55 216.63-21.3 216.63-16.45L216.63-16.45Q216.63-14.65 216.63-13 216.63-11.35 216.61-9.7 216.58-8.05 216.58-6.2L216.58-6.2Q216.58-5.45 216.53-4.5 216.48-3.55 216.38-2.5L216.38-2.5Q217.23-2.55 218.13-2.6 219.03-2.65 219.83-2.65L219.83-2.65 219.83 0ZM211.43-12L211.43-12Q209.83-11.9 208.16-11.55 206.48-11.2 205.13-10.5 203.78-9.8 202.96-8.7 202.13-7.6 202.13-6.05L202.13-6.05Q202.23-4.35 203.26-3.55 204.28-2.75 205.68-2.75L205.68-2.75Q207.43-2.75 208.78-3.43 210.13-4.1 211.43-5.3L211.43-5.3Q211.38-5.85 211.38-6.43 211.38-7 211.38-7.65L211.38-7.65Q211.38-8.1 211.41-9.33 211.43-10.55 211.43-12ZM234.23 0L223.08 0 223.08-2.1Q224.58-2.1 225.18-2.8 225.78-3.5 225.9-4.75 226.03-6 226.03-7.65L226.03-7.65 226.08-18.05Q226.08-18.85 226.1-19.78 226.13-20.7 226.28-21.6L226.28-21.6Q225.38-21.55 224.45-21.53 223.53-21.5 222.73-21.45L222.73-21.45 222.73-24.1Q224.98-24.1 226.25-24.33 227.53-24.55 228.2-24.85 228.88-25.15 229.23-25.5L229.23-25.5 231.03-25.5Q231.08-25.05 231.1-24.65 231.13-24.25 231.15-23.8 231.18-23.35 231.23-22.65L231.23-22.65Q232.33-23.55 233.63-24.25 234.93-24.95 236.35-25.38 237.78-25.8 239.08-25.8L239.08-25.8Q243.53-25.8 245.5-23.1 247.48-20.4 247.48-14.65L247.48-14.65 247.48-6.2Q247.48-5.3 247.43-4.38 247.38-3.45 247.28-2.5L247.28-2.5Q248.08-2.55 248.9-2.58 249.73-2.6 250.43-2.65L250.43-2.65 250.43 0 239.28 0 239.28-2.1Q240.78-2.1 241.38-2.8 241.98-3.5 242.1-4.75 242.23-6 242.23-7.65L242.23-7.65 242.23-14.65Q242.18-18.6 240.95-20.6 239.73-22.6 237.03-22.55L237.03-22.55Q235.43-22.55 233.88-21.75 232.33-20.95 231.28-19.8L231.28-19.8Q231.28-19.3 231.28-18.73 231.28-18.15 231.28-17.55L231.28-17.55 231.28-6.2Q231.28-5.3 231.23-4.38 231.18-3.45 231.08-2.5L231.08-2.5Q231.88-2.55 232.7-2.58 233.53-2.6 234.23-2.65L234.23-2.65 234.23 0ZM264.28 0.8L264.28 0.8Q261.23 0.8 258.85-0.73 256.48-2.25 255.1-5.1 253.73-7.95 253.73-11.8L253.73-11.8Q253.73-15.9 255.33-19.05 256.93-22.2 259.83-24 262.73-25.8 266.43-25.8L266.43-25.8Q267.98-25.8 269.4-25.43 270.83-25.05 271.78-24.55L271.78-24.55 271.78-30.25Q271.78-31 271.83-31.93 271.88-32.85 271.98-33.85L271.98-33.85Q271.08-33.8 270.13-33.75 269.18-33.7 268.43-33.7L268.43-33.7 268.43-36.35Q270.68-36.35 272-36.58 273.33-36.8 274.05-37.1 274.78-37.4 275.13-37.75L275.13-37.75 276.98-37.75 276.98-6.2Q276.98-5.45 276.93-4.5 276.88-3.55 276.78-2.5L276.78-2.5Q277.68-2.55 278.58-2.6 279.48-2.65 280.23-2.65L280.23-2.65 280.23 0 272.28 0Q272.18-0.7 272.1-1.3 272.03-1.9 271.98-2.5L271.98-2.5Q270.48-0.9 268.53-0.05 266.58 0.8 264.28 0.8ZM266.33-2.35L266.33-2.35Q267.88-2.35 269.35-3.2 270.83-4.05 271.78-5.35L271.78-5.35Q271.78-6 271.78-6.7 271.78-7.4 271.78-8.2L271.78-8.2 271.78-21.8Q270.83-22.5 269.55-22.88 268.28-23.25 266.93-23.25L266.93-23.25Q264.48-23.25 262.8-21.83 261.13-20.4 260.33-17.95 259.53-15.5 259.58-12.35L259.58-12.35Q259.68-9.65 260.43-7.35 261.18-5.05 262.65-3.7 264.13-2.35 266.33-2.35ZM309.72 0L297.42 0 297.42-2.2Q299.07-2.3 299.8-2.9 300.52-3.5 300.72-4.7 300.92-5.9 300.92-7.75L300.92-7.75 300.92-28.55Q300.92-29.65 300.97-30.68 301.02-31.7 301.07-32.45L301.07-32.45Q300.22-32.4 299.22-32.35 298.22-32.3 297.42-32.25L297.42-32.25 297.42-35 309.72-35 309.72-32.8Q308.12-32.75 307.37-32.13 306.62-31.5 306.42-30.33 306.22-29.15 306.22-27.25L306.22-27.25 306.22-19.1 322.77-19.1 322.77-28.55Q322.77-29.65 322.82-30.68 322.87-31.7 322.92-32.45L322.92-32.45Q322.07-32.4 321.07-32.35 320.07-32.3 319.27-32.25L319.27-32.25 319.27-35 331.57-35 331.57-32.8Q329.97-32.75 329.22-32.13 328.47-31.5 328.27-30.33 328.07-29.15 328.07-27.25L328.07-27.25 328.07-6.7Q328.07-5.35 328.05-4.28 328.02-3.2 327.92-2.55L327.92-2.55Q328.77-2.65 329.77-2.68 330.77-2.7 331.57-2.75L331.57-2.75 331.57 0 319.27 0 319.27-2.2Q320.92-2.3 321.65-2.9 322.37-3.5 322.57-4.7 322.77-5.9 322.77-7.75L322.77-7.75 322.77-16.5 306.22-16.35 306.22-6.7Q306.22-5.35 306.2-4.28 306.17-3.2 306.07-2.55L306.07-2.55Q306.92-2.65 307.95-2.68 308.97-2.7 309.72-2.75L309.72-2.75 309.72 0ZM339.62 13.55L339.62 13.55Q337.97 13.55 336.79 12.68 335.62 11.8 335.62 10.15L335.62 10.15Q335.62 9.1 336.29 8.25 336.97 7.4 338.07 7.4L338.07 7.4Q339.27 7.35 339.79 8.15 340.32 8.95 340.32 9.8L340.32 9.8Q340.32 9.95 340.32 10.1 340.32 10.25 340.27 10.45L340.27 10.45Q340.42 10.55 340.72 10.5L340.72 10.5Q341.27 10.45 341.92 9.9 342.57 9.35 343.12 8.35L343.12 8.35Q343.72 7.25 344.47 5.3 345.22 3.35 346.12 0.8L346.12 0.8 338.27-15.6Q336.92-18.4 336.39-19.98 335.87-21.55 335.72-22.45L335.72-22.45 333.32-22.35 333.32-25 344.37-25 344.37-22.95 344.27-22.95Q342.22-22.75 342.04-21.4 341.87-20.05 342.97-17.7L342.97-17.7 348.47-5.6Q349.42-8.15 350.39-11.15 351.37-14.15 352.42-17.3L352.42-17.3Q352.77-18.25 353.14-19.33 353.52-20.4 353.94-21.3 354.37-22.2 354.77-22.55L354.77-22.55 351.52-22.35 351.52-25 359.72-25 359.72-22.95Q357.97-22.35 356.99-20.75 356.02-19.15 355.12-16.7L355.12-16.7 348.87 0.9Q347.42 5.05 346.17 7.88 344.92 10.7 343.39 12.13 341.87 13.55 339.62 13.55ZM373.12 13.55L373.12 13.55Q368.72 13.55 366.04 12.58 363.37 11.6 362.19 10.08 361.01 8.55 361.01 6.85L361.01 6.85Q361.01 5.5 361.64 4.35 362.26 3.2 363.31 2.33 364.37 1.45 365.67 0.95L365.67 0.95Q363.92 0.4 363.01-0.63 362.12-1.65 362.12-3.15L362.12-3.15Q362.12-4.75 363.39-6.3 364.67-7.85 367.06-8.4L367.06-8.4Q364.81-9.4 363.47-11.3 362.12-13.2 362.06-15.8L362.06-15.8Q362.01-18.8 363.59-21.05 365.17-23.3 367.64-24.55 370.12-25.8 372.81-25.8L372.81-25.8Q374.37-25.8 376.01-25.38 377.67-24.95 379.01-24.05L379.01-24.05Q379.56-25.5 380.47-26.7 381.37-27.9 382.59-28.6 383.81-29.3 385.17-29.3L385.17-29.3Q386.62-29.3 387.37-28.55 388.12-27.8 388.12-26.55L388.12-26.55Q388.12-26.15 387.89-25.58 387.67-25 387.12-24.6 386.56-24.2 385.62-24.2L385.62-24.2Q384.81-24.2 384.19-24.73 383.56-25.25 383.42-26L383.42-26Q382.37-25.8 381.69-24.78 381.01-23.75 380.81-22.7L380.81-22.7Q382.12-21.55 382.84-19.98 383.56-18.4 383.56-16.6L383.56-16.6Q383.56-13.75 382.04-11.55 380.51-9.35 378.06-8.1 375.62-6.85 372.76-6.85L372.76-6.85Q371.92-6.85 371.17-6.98 370.42-7.1 369.51-7.1L369.51-7.1Q367.92-7.1 366.89-6.35 365.87-5.6 366.12-4.55L366.12-4.55Q366.37-3.45 368.22-3.1 370.06-2.75 373.56-2.6L373.56-2.6Q377.42-2.45 380.19-1.68 382.97-0.9 384.49 0.7 386.01 2.3 386.01 5.05L386.01 5.05Q386.01 7.1 384.89 8.7 383.76 10.3 381.89 11.38 380.01 12.45 377.72 13 375.42 13.55 373.12 13.55ZM373.56 11.1L373.56 11.1Q377.62 11.1 379.84 9.6 382.06 8.1 382.06 6.2L382.06 6.2Q382.06 4.6 380.97 3.73 379.87 2.85 377.89 2.48 375.92 2.1 373.26 2.05L373.26 2.05Q371.97 1.95 370.62 1.9 369.26 1.85 368.12 1.65L368.12 1.65Q366.97 2.45 366.34 3.6 365.72 4.75 365.67 6L365.67 6Q365.67 8.3 367.81 9.7 369.97 11.1 373.56 11.1ZM372.92-9.2L372.92-9.2Q374.62-9.2 375.74-10.08 376.87-10.95 377.44-12.43 378.01-13.9 378.01-15.65L378.01-15.65Q378.01-17.7 377.42-19.5 376.81-21.3 375.67-22.4 374.51-23.5 372.72-23.5L372.72-23.5Q370.26-23.5 368.92-21.55 367.56-19.6 367.56-16.85L367.56-16.85Q367.56-14.65 368.19-12.93 368.81-11.2 370.01-10.2 371.22-9.2 372.92-9.2ZM400.91 0.8L400.91 0.8Q397.41 0.8 394.64-0.83 391.86-2.45 390.26-5.43 388.66-8.4 388.66-12.45L388.66-12.45Q388.66-15.95 390.24-19 391.81-22.05 394.66-23.93 397.51-25.8 401.26-25.8L401.26-25.8Q403.36-25.8 405.24-25.15 407.11-24.5 408.59-23.13 410.06-21.75 410.91-19.58 411.76-17.4 411.76-14.3L411.76-14.3 394.56-14Q394.56-10.6 395.34-7.95 396.11-5.3 397.86-3.85 399.61-2.4 402.41-2.4L402.41-2.4Q403.76-2.4 405.29-2.88 406.81-3.35 408.19-4.25 409.56-5.15 410.51-6.4L410.51-6.4 412.06-5.05Q410.56-2.8 408.61-1.53 406.66-0.25 404.64 0.28 402.61 0.8 400.91 0.8ZM394.76-16.6L394.76-16.6 406.31-16.6Q406.31-18.5 405.79-20.03 405.26-21.55 404.16-22.45 403.06-23.35 401.36-23.35L401.36-23.35Q398.71-23.35 397.01-21.68 395.31-20 394.76-16.6ZM427.11 0L415.96 0 415.96-2.1Q417.46-2.1 418.06-2.8 418.66-3.5 418.79-4.75 418.91-6 418.91-7.65L418.91-7.65 418.96-18.05Q418.96-18.85 418.99-19.78 419.01-20.7 419.16-21.6L419.16-21.6Q418.26-21.55 417.33-21.53 416.41-21.5 415.61-21.45L415.61-21.45 415.61-24.1Q417.86-24.1 419.13-24.33 420.41-24.55 421.08-24.85 421.76-25.15 422.11-25.5L422.11-25.5 423.91-25.5Q423.96-25.05 423.99-24.65 424.01-24.25 424.04-23.8 424.06-23.35 424.11-22.65L424.11-22.65Q425.21-23.55 426.51-24.25 427.81-24.95 429.24-25.38 430.66-25.8 431.96-25.8L431.96-25.8Q436.41-25.8 438.38-23.1 440.36-20.4 440.36-14.65L440.36-14.65 440.36-6.2Q440.36-5.3 440.31-4.38 440.26-3.45 440.16-2.5L440.16-2.5Q440.96-2.55 441.79-2.58 442.61-2.6 443.31-2.65L443.31-2.65 443.31 0 432.16 0 432.16-2.1Q433.66-2.1 434.26-2.8 434.86-3.5 434.99-4.75 435.11-6 435.11-7.65L435.11-7.65 435.11-14.65Q435.06-18.6 433.83-20.6 432.61-22.6 429.91-22.55L429.91-22.55Q428.31-22.55 426.76-21.75 425.21-20.95 424.16-19.8L424.16-19.8Q424.16-19.3 424.16-18.73 424.16-18.15 424.16-17.55L424.16-17.55 424.16-6.2Q424.16-5.3 424.11-4.38 424.06-3.45 423.96-2.5L423.96-2.5Q424.76-2.55 425.58-2.58 426.41-2.6 427.11-2.65L427.11-2.65 427.11 0ZM446.81 0L446.81-2.1Q448.31-2.1 448.91-2.8 449.51-3.5 449.63-4.75 449.76-6 449.76-7.65L449.76-7.65 449.76-18Q449.76-18.85 449.81-19.73 449.86-20.6 449.96-21.6L449.96-21.6Q449.11-21.55 448.16-21.53 447.21-21.5 446.41-21.45L446.41-21.45 446.41-24.1Q448.66-24.1 449.98-24.33 451.31-24.55 452.03-24.85 452.76-25.15 453.11-25.5L453.11-25.5 455.01-25.5 455.01-6.2Q455.01-5.3 454.96-4.38 454.91-3.45 454.81-2.5L454.81-2.5Q455.61-2.55 456.43-2.58 457.26-2.6 457.96-2.65L457.96-2.65 457.96 0 446.81 0ZM452.16-30.1L452.16-30.1Q450.86-30.1 449.96-31.08 449.06-32.05 449.06-33.45L449.06-33.45Q449.06-34.85 450.01-35.83 450.96-36.8 452.16-36.8L452.16-36.8Q453.46-36.8 454.33-35.83 455.21-34.85 455.21-33.45L455.21-33.45Q455.21-32.05 454.33-31.08 453.46-30.1 452.16-30.1ZM473.66 0.8L473.66 0.8Q470.31 0.8 467.51-0.73 464.71-2.25 463.03-5.1 461.36-7.95 461.36-12L461.36-12Q461.36-14.7 462.31-17.18 463.26-19.65 464.98-21.6 466.71-23.55 469.08-24.68 471.46-25.8 474.36-25.8L474.36-25.8Q477.31-25.8 479.41-24.9 481.51-24 482.63-22.55 483.76-21.1 483.76-19.4L483.76-19.4Q483.76-18.2 483.06-17.3 482.36-16.4 481.06-16.4L481.06-16.4Q479.61-16.35 479.01-17.28 478.41-18.2 478.41-19L478.41-19Q478.41-19.45 478.56-20.03 478.71-20.6 479.11-21.05L479.11-21.05Q478.71-22.1 477.81-22.6 476.91-23.1 475.96-23.25 475.01-23.4 474.36-23.4L474.36-23.4Q471.31-23.35 469.23-20.78 467.16-18.2 467.16-13.35L467.16-13.35Q467.16-10.25 468.08-7.8 469.01-5.35 470.81-3.9 472.61-2.45 475.11-2.4L475.11-2.4Q477.36-2.4 479.46-3.58 481.56-4.75 482.86-6.55L482.86-6.55 484.46-5.15Q483.01-2.9 481.13-1.6 479.26-0.3 477.33 0.25 475.41 0.8 473.66 0.8ZM515.15 0L501.6 0 501.6-2.2Q503.25-2.3 503.98-2.9 504.7-3.5 504.9-4.7 505.1-5.9 505.1-7.75L505.1-7.75 505.1-28.55Q505.1-29.65 505.15-30.68 505.2-31.7 505.25-32.45L505.25-32.45Q504.4-32.4 503.4-32.35 502.4-32.3 501.6-32.25L501.6-32.25 501.6-35 525.4-35 525.7-25.95 523.5-25.95Q523.5-28.8 522.55-30.3 521.6-31.8 520.1-32.3 518.6-32.8 516.85-32.75L516.85-32.75 513.85-32.65Q512.25-32.65 511.53-32 510.8-31.35 510.6-30.15 510.4-28.95 510.4-27.1L510.4-27.1 510.4-18.5 517.95-18.45 517.65-22.8 520.4-22.8 520.4-11.7 518.2-11.7Q518.2-13.9 517.58-14.85 516.95-15.8 515.7-16 514.45-16.2 512.6-16.15L512.6-16.15 510.4-16.05 510.4-6.7Q510.4-5.35 510.38-4.28 510.35-3.2 510.25-2.55L510.25-2.55Q511-2.6 511.88-2.63 512.75-2.65 513.6-2.7 514.45-2.75 515.15-2.75L515.15-2.75 515.15 0ZM540.05 0.8L540.05 0.8Q536.5 0.8 533.65-0.8 530.8-2.4 529.12-5.28 527.45-8.15 527.45-11.9L527.45-11.9Q527.45-15.95 529.12-19.07 530.8-22.2 533.65-24 536.5-25.8 540-25.8L540-25.8Q543.55-25.8 546.4-24.18 549.25-22.55 550.92-19.68 552.6-16.8 552.6-13.05L552.6-13.05Q552.6-9.1 550.95-5.95 549.3-2.8 546.47-1 543.65 0.8 540.05 0.8ZM540.4-1.7L540.4-1.7Q542.8-1.75 544.17-3.2 545.55-4.65 546.15-6.93 546.75-9.2 546.75-11.65L546.75-11.65Q546.75-13.8 546.37-15.88 546-17.95 545.2-19.65 544.4-21.35 543.1-22.38 541.8-23.4 539.95-23.35L539.95-23.35Q537.6-23.35 536.12-21.9 534.65-20.45 533.97-18.18 533.3-15.9 533.3-13.35L533.3-13.35Q533.3-10.4 534.05-7.75 534.8-5.1 536.37-3.4 537.95-1.7 540.4-1.7ZM568.99 0.8L568.99 0.8Q565.44 0.8 562.59-0.8 559.74-2.4 558.07-5.28 556.39-8.15 556.39-11.9L556.39-11.9Q556.39-15.95 558.07-19.07 559.74-22.2 562.59-24 565.44-25.8 568.94-25.8L568.94-25.8Q572.49-25.8 575.34-24.18 578.19-22.55 579.87-19.68 581.54-16.8 581.54-13.05L581.54-13.05Q581.54-9.1 579.89-5.95 578.24-2.8 575.42-1 572.59 0.8 568.99 0.8ZM569.34-1.7L569.34-1.7Q571.74-1.75 573.12-3.2 574.49-4.65 575.09-6.93 575.69-9.2 575.69-11.65L575.69-11.65Q575.69-13.8 575.32-15.88 574.94-17.95 574.14-19.65 573.34-21.35 572.04-22.38 570.74-23.4 568.89-23.35L568.89-23.35Q566.54-23.35 565.07-21.9 563.59-20.45 562.92-18.18 562.24-15.9 562.24-13.35L562.24-13.35Q562.24-10.4 562.99-7.75 563.74-5.1 565.32-3.4 566.89-1.7 569.34-1.7ZM595.94 0.8L595.94 0.8Q592.89 0.8 590.52-0.73 588.14-2.25 586.77-5.1 585.39-7.95 585.39-11.8L585.39-11.8Q585.39-15.9 586.99-19.05 588.59-22.2 591.49-24 594.39-25.8 598.09-25.8L598.09-25.8Q599.64-25.8 601.07-25.43 602.49-25.05 603.44-24.55L603.44-24.55 603.44-30.25Q603.44-31 603.49-31.93 603.54-32.85 603.64-33.85L603.64-33.85Q602.74-33.8 601.79-33.75 600.84-33.7 600.09-33.7L600.09-33.7 600.09-36.35Q602.34-36.35 603.67-36.58 604.99-36.8 605.72-37.1 606.44-37.4 606.79-37.75L606.79-37.75 608.64-37.75 608.64-6.2Q608.64-5.45 608.59-4.5 608.54-3.55 608.44-2.5L608.44-2.5Q609.34-2.55 610.24-2.6 611.14-2.65 611.89-2.65L611.89-2.65 611.89 0 603.94 0Q603.84-0.7 603.77-1.3 603.69-1.9 603.64-2.5L603.64-2.5Q602.14-0.9 600.19-0.05 598.24 0.8 595.94 0.8ZM597.99-2.35L597.99-2.35Q599.54-2.35 601.02-3.2 602.49-4.05 603.44-5.35L603.44-5.35Q603.44-6 603.44-6.7 603.44-7.4 603.44-8.2L603.44-8.2 603.44-21.8Q602.49-22.5 601.22-22.88 599.94-23.25 598.59-23.25L598.59-23.25Q596.14-23.25 594.47-21.83 592.79-20.4 591.99-17.95 591.19-15.5 591.24-12.35L591.24-12.35Q591.34-9.65 592.09-7.35 592.84-5.05 594.32-3.7 595.79-2.35 597.99-2.35ZM626.09 0.8L626.09 0.8Q623.74 0.8 621.74 0.18 619.74-0.45 618.54-1.3L618.54-1.3 618.69 0.35 616.04 0.35 615.79-8.25 617.89-8.25Q617.99-6.4 619.04-4.9 620.09-3.4 621.76-2.55 623.44-1.7 625.39-1.7L625.39-1.7Q626.54-1.7 627.64-2.08 628.74-2.45 629.49-3.23 630.24-4 630.24-5.15L630.24-5.15Q630.24-6.4 629.46-7.23 628.69-8.05 627.36-8.7 626.04-9.35 624.34-10L624.34-10Q622.84-10.6 621.31-11.25 619.79-11.9 618.49-12.8 617.19-13.7 616.44-15.03 615.69-16.35 615.69-18.3L615.69-18.3Q615.69-19.45 616.14-20.78 616.59-22.1 617.59-23.23 618.59-24.35 620.29-25.08 621.99-25.8 624.49-25.8L624.49-25.8Q625.84-25.8 627.51-25.35 629.19-24.9 630.64-23.8L630.64-23.8 630.59-25.55 633.24-25.55 633.24-16.75 631.09-16.75Q630.94-18.5 630.16-20 629.39-21.5 627.99-22.45 626.59-23.4 624.59-23.4L624.59-23.4Q622.64-23.4 621.41-22.43 620.19-21.45 620.19-20L620.19-20Q620.19-18.55 621.11-17.65 622.04-16.75 623.54-16.1 625.04-15.45 626.79-14.8L626.79-14.8Q628.89-13.95 630.74-12.95 632.59-11.95 633.74-10.45 634.89-8.95 634.89-6.65L634.89-6.65Q634.89-4.15 633.61-2.48 632.34-0.8 630.34 0 628.34 0.8 626.09 0.8Z" opacity="1" transform="matrix(1,0,0,1,0,0)" fill="#27292a" class="undefined-text-1" data-fill-palette-color="secondary" id="text-1"></path></svg></g></svg></g></svg></g></svg></g><g transform="matrix(1,0,0,1,55.84005224802751,0)"><svg viewBox="0 0 113.43989550394495 113.43989550394495" height="113.43989550394495" width="113.43989550394495"><g><svg xmlns="http://www.w3.org/2000/svg" xmlns:xlink="http://www.w3.org/1999/xlink" version="1.0" x="0" y="0" viewBox="22 22 56 56" enable-background="new 0 0 100 100" xml:space="preserve" height="113.43989550394495" width="113.43989550394495" class="icon-icon-0" data-fill-palette-color="accent" id="icon-0"><g fill="#fdc500" data-fill-palette-color="accent"><g fill="#fdc500" data-fill-palette-color="accent"><path d="M50 22c-15.439 0-28 12.561-28 28s12.561 28 28 28 28-12.561 28-28S65.439 22 50 22zM50 76c-14.337 0-26-11.663-26-26s11.663-26 26-26 26 11.663 26 26S64.337 76 50 76z" fill="#fdc500" data-fill-palette-color="accent"></path><path d="M56 36c-0.553 0-1 0.447-1 1v6h-2v-6c0-0.553-0.447-1-1-1s-1 0.447-1 1v6h-2v-6c0-0.553-0.447-1-1-1s-1 0.447-1 1v7c0 0.553 0.447 1 1 1h3v19c0 0.553 0.447 1 1 1s1-0.447 1-1V45h3c0.553 0 1-0.447 1-1v-7C57 36.447 56.553 36 56 36z" fill="#fdc500" data-fill-palette-color="accent"></path><path d="M62.447 36.105c-0.311-0.154-0.678-0.139-0.972 0.044S61 36.653 61 37v15 1 11c0 0.553 0.447 1 1 1s1-0.447 1-1V54h3c0.553 0 1-0.447 1-1V42C67 38.423 62.633 36.198 62.447 36.105zM65 52h-2V38.848C63.943 39.59 65 40.711 65 42V52z" fill="#fdc500" data-fill-palette-color="accent"></path><path d="M39.111 35.707c-2.983 0-4.888 4.047-4.887 6.833 0 2.531 1.556 4.387 3.887 4.799V64c0 0.553 0.447 1 1 1s1-0.447 1-1V47.339C42.444 46.927 44 45.071 44 42.54 44 39.754 42.096 35.707 39.111 35.707zM39.111 45.428c-1.396 0-2.888-0.759-2.887-2.888 0-2.213 1.565-4.833 2.887-4.833C40.435 37.707 42 40.327 42 42.54 42 44.669 40.508 45.428 39.111 45.428z" fill="#fdc500" data-fill-palette-color="accent"></path></g></g></svg></g></svg></g><g></g></svg></g></svg></g></svg></g><defs></defs></svg><rect width="320" height="360" fill="none" stroke="none" visibility="hidden"></rect></g></svg></g></svg>